<?xml version="1.0" encoding="UTF-8"?>
<svg xmlns="http://www.w3.org/2000/svg" xmlns:xlink="http://www.w3.org/1999/xlink" width="95px" height="18px" viewBox="0 0 93 18" version="1.1">
<g id="surface1">
<path style=" stroke:none;fill-rule:nonzero;fill:rgb(36.078432%,99.607843%,33.725491%);fill-opacity:1;" d="M 80.84375 2.070312 L 84.144531 2.070312 L 84.816406 3.128906 L 86.25 5.4375 L 87.015625 6.691406 L 87.589844 7.605469 L 89.984375 11.453125 L 90.222656 11.453125 L 90.222656 2.117188 L 90.273438 2.070312 L 93 2.070312 L 93 16.699219 L 90.03125 16.699219 L 89.457031 15.738281 L 88.738281 14.582031 L 87.972656 13.332031 L 86.109375 10.300781 L 85.339844 9.046875 L 84.625 7.894531 L 83.953125 6.785156 L 83.90625 6.640625 L 83.667969 6.691406 L 83.617188 16.699219 L 80.84375 16.699219 Z M 80.84375 2.070312 "/>
<path style=" stroke:none;fill-rule:nonzero;fill:rgb(36.078432%,99.607843%,33.725491%);fill-opacity:1;" d="M 70.167969 1.878906 L 71.84375 1.878906 L 72.847656 2.019531 L 73.804688 2.308594 L 74.714844 2.742188 L 75.386719 3.222656 L 75.863281 3.65625 L 76.34375 4.1875 L 76.820312 4.957031 L 77.15625 5.632812 L 77.492188 6.640625 L 77.683594 7.554688 L 77.777344 8.421875 L 77.777344 10.394531 L 77.636719 11.503906 L 77.394531 12.511719 L 77.011719 13.476562 L 76.582031 14.246094 L 76.105469 14.871094 L 75.433594 15.546875 L 74.714844 16.027344 L 73.902344 16.410156 L 73.183594 16.652344 L 72.226562 16.84375 L 71.84375 16.894531 L 70.167969 16.894531 L 69.257812 16.75 L 68.253906 16.460938 L 67.488281 16.121094 L 66.769531 15.640625 L 66.292969 15.207031 L 66.050781 14.96875 L 65.621094 14.488281 L 65.09375 13.621094 L 64.761719 12.898438 L 64.472656 11.9375 L 64.28125 10.78125 L 64.234375 10.25 L 64.234375 8.519531 L 64.378906 7.363281 L 64.617188 6.351562 L 64.902344 5.535156 L 65.335938 4.714844 L 65.8125 4.042969 L 66.292969 3.511719 L 66.960938 2.984375 L 67.679688 2.550781 L 68.398438 2.261719 L 69.210938 2.019531 Z M 70.457031 4.378906 L 69.738281 4.523438 L 69.117188 4.765625 L 68.636719 5.101562 L 68.300781 5.390625 L 67.871094 5.96875 L 67.535156 6.738281 L 67.34375 7.460938 L 67.203125 8.566406 L 67.203125 10.203125 L 67.296875 11.070312 L 67.488281 11.886719 L 67.726562 12.511719 L 68.0625 13.089844 L 68.492188 13.570312 L 68.972656 13.910156 L 69.59375 14.199219 L 70.457031 14.390625 L 71.558594 14.390625 L 72.324219 14.246094 L 72.992188 13.957031 L 73.519531 13.570312 L 73.855469 13.234375 L 74.285156 12.5625 L 74.523438 11.9375 L 74.714844 11.117188 L 74.8125 10.347656 L 74.8125 8.46875 L 74.667969 7.410156 L 74.476562 6.691406 L 74.09375 5.871094 L 73.710938 5.390625 L 73.230469 4.957031 L 72.464844 4.570312 L 71.890625 4.429688 L 71.558594 4.378906 Z M 70.457031 4.378906 "/>
<path style=" stroke:none;fill-rule:nonzero;fill:rgb(36.078432%,99.607843%,33.725491%);fill-opacity:1;" d="M 51.359375 2.070312 L 57.675781 2.070312 L 58.585938 2.164062 L 59.304688 2.359375 L 59.878906 2.597656 L 60.355469 2.886719 L 60.835938 3.320312 L 61.21875 3.800781 L 61.554688 4.523438 L 61.695312 5.054688 L 61.746094 5.34375 L 61.746094 6.640625 L 61.554688 7.410156 L 61.265625 7.988281 L 60.738281 8.566406 L 60.261719 8.953125 L 59.542969 9.335938 L 59.160156 9.480469 L 59.160156 9.722656 L 59.734375 10.058594 L 60.117188 10.445312 L 60.453125 10.972656 L 60.835938 11.792969 L 61.746094 14.488281 L 62.460938 16.652344 L 62.460938 16.699219 L 59.496094 16.699219 L 58.824219 14.726562 L 57.964844 12.082031 L 57.582031 11.308594 L 57.148438 10.925781 L 56.671875 10.734375 L 55.808594 10.636719 L 54.277344 10.636719 L 54.230469 16.699219 L 51.359375 16.699219 Z M 54.230469 4.378906 L 54.230469 8.328125 L 57.148438 8.328125 L 57.722656 8.230469 L 58.15625 8.039062 L 58.488281 7.796875 L 58.777344 7.363281 L 58.921875 6.882812 L 58.96875 6.257812 L 58.871094 5.582031 L 58.632812 5.101562 L 58.347656 4.765625 L 57.773438 4.476562 L 57.292969 4.378906 Z M 54.230469 4.378906 "/>
<path style=" stroke:none;fill-rule:nonzero;fill:rgb(36.078432%,99.607843%,33.725491%);fill-opacity:1;" d="M 33.839844 2.070312 L 37.527344 2.070312 L 37.71875 2.503906 L 38.722656 5.4375 L 40.445312 10.445312 L 41.355469 13.089844 L 42.214844 15.59375 L 42.550781 16.554688 L 42.550781 16.699219 L 39.535156 16.699219 L 38.960938 14.96875 L 38.484375 13.476562 L 38.484375 13.332031 L 32.882812 13.378906 L 31.878906 16.460938 L 31.78125 16.699219 L 28.8125 16.699219 L 29.386719 14.96875 L 31.972656 7.460938 L 32.882812 4.8125 L 33.746094 2.308594 Z M 35.5625 5.101562 L 35.371094 5.535156 L 34.320312 8.757812 L 33.648438 10.828125 L 33.695312 10.925781 L 37.621094 10.925781 L 37.574219 10.589844 L 36.472656 7.21875 L 35.800781 5.148438 Z M 35.5625 5.101562 "/>
<path style=" stroke:none;fill-rule:nonzero;fill:rgb(36.078432%,99.607843%,33.725491%);fill-opacity:1;" d="M 11.34375 0 L 11.824219 0 L 12.683594 0.0976562 L 13.6875 0.433594 L 14.453125 0.867188 L 14.933594 1.25 L 15.460938 1.78125 L 16.035156 2.550781 L 16.65625 3.417969 L 18.667969 6.160156 L 19.289062 7.027344 L 20.628906 8.855469 L 21.25 9.722656 L 21.824219 10.492188 L 22.449219 11.359375 L 22.832031 12.03125 L 23.023438 12.511719 L 23.167969 13.140625 L 23.214844 13.910156 L 23.117188 14.632812 L 22.878906 15.402344 L 22.496094 16.121094 L 22.066406 16.652344 L 21.683594 17.039062 L 20.964844 17.519531 L 20.292969 17.808594 L 19.527344 18 L 19.050781 18 L 19.195312 17.855469 L 19.671875 17.566406 L 20.292969 17.039062 L 20.628906 16.554688 L 20.917969 15.980469 L 21.058594 15.304688 L 21.058594 14.535156 L 20.917969 13.8125 L 20.675781 13.234375 L 20.390625 12.707031 L 18.378906 9.960938 L 17.757812 9.097656 L 15.746094 6.351562 L 15.125 5.488281 L 13.785156 3.65625 L 13.355469 3.082031 L 13.066406 2.742188 L 12.589844 2.359375 L 11.917969 1.972656 L 11.25 1.734375 L 10.816406 1.636719 L 10.386719 1.589844 L 9.667969 1.589844 L 8.949219 1.683594 L 8.183594 1.878906 L 7.753906 2.019531 L 7.609375 1.972656 L 8.042969 1.492188 L 8.425781 1.105469 L 9.140625 0.625 L 9.90625 0.289062 L 10.53125 0.0976562 Z M 11.34375 0 "/>
<path style=" stroke:none;fill-rule:nonzero;fill:rgb(36.078432%,99.607843%,33.725491%);fill-opacity:1;" d="M 44.707031 2.070312 L 47.527344 2.070312 L 47.578125 2.117188 L 47.578125 16.699219 L 44.707031 16.699219 Z M 44.707031 2.070312 "/>
<path style=" stroke:none;fill-rule:nonzero;fill:rgb(36.078432%,99.607843%,33.725491%);fill-opacity:1;" d="M 0.765625 11.359375 L 0.8125 11.550781 L 0.863281 12.128906 L 1.054688 12.851562 L 1.4375 13.714844 L 1.769531 14.246094 L 2.152344 14.726562 L 2.535156 15.113281 L 3.015625 15.402344 L 3.492188 15.59375 L 3.828125 15.640625 L 4.210938 15.640625 L 4.785156 15.496094 L 5.457031 15.160156 L 6.605469 14.488281 L 10.289062 12.367188 L 11.007812 12.128906 L 12.207031 12.128906 L 12.921875 12.367188 L 13.976562 12.945312 L 15.988281 14.101562 L 15.988281 14.148438 L 15.460938 14.101562 L 14.886719 14.054688 L 13.402344 14.054688 L 12.445312 14.199219 L 11.582031 14.488281 L 10.769531 14.917969 L 9.957031 15.402344 L 7.273438 16.941406 L 6.175781 17.566406 L 5.601562 17.808594 L 4.835938 18 L 3.683594 18 L 2.917969 17.808594 L 2.152344 17.46875 L 1.628906 17.085938 L 1.148438 16.652344 L 0.71875 16.121094 L 0.289062 15.304688 L 0.0976562 14.679688 L 0 13.957031 L 0.046875 13.089844 L 0.238281 12.367188 L 0.621094 11.597656 Z M 0.765625 11.359375 "/>
<path style=" stroke:none;fill-rule:nonzero;fill:rgb(36.078432%,99.607843%,33.725491%);fill-opacity:1;" d="M 11.390625 5.148438 L 11.824219 5.148438 L 12.300781 5.34375 L 12.589844 5.582031 L 13.019531 6.113281 L 13.402344 6.546875 L 14.023438 7.363281 L 14.789062 8.375 L 16.128906 10.300781 L 17.230469 11.984375 L 17.519531 12.417969 L 17.421875 12.464844 L 16.703125 12.03125 L 15.460938 11.308594 L 14.261719 10.683594 L 13.304688 10.300781 L 12.207031 10.058594 L 10.960938 10.058594 L 10.050781 10.25 L 9 10.636719 L 8.183594 11.019531 L 7.082031 11.648438 L 5.984375 12.320312 L 5.792969 12.464844 L 5.695312 12.417969 L 6.175781 11.648438 L 7.609375 9.53125 L 8.089844 8.855469 L 8.710938 7.988281 L 9.382812 7.121094 L 9.90625 6.449219 L 10.480469 5.777344 L 10.722656 5.488281 L 11.199219 5.199219 Z M 11.390625 5.148438 "/>
<path style=" stroke:none;fill-rule:nonzero;fill:rgb(36.078432%,99.607843%,33.725491%);fill-opacity:1;" d="M 10.097656 2.070312 L 10.914062 2.164062 L 11.582031 2.359375 L 11.632812 2.453125 L 10.960938 2.550781 L 10.339844 2.792969 L 9.714844 3.273438 L 9.140625 4.042969 L 8.519531 4.910156 L 7.179688 6.738281 L 6.558594 7.605469 L 5.984375 8.375 L 5.359375 9.242188 L 3.351562 11.984375 L 2.777344 12.800781 L 2.585938 13.332031 L 2.535156 13.667969 L 2.535156 14.34375 L 2.34375 14.148438 L 1.914062 13.429688 L 1.53125 12.609375 L 1.292969 11.886719 L 1.148438 11.070312 L 1.195312 10.734375 L 1.867188 9.867188 L 2.34375 9.191406 L 3.015625 8.277344 L 3.636719 7.410156 L 4.210938 6.640625 L 4.882812 5.726562 L 5.503906 4.859375 L 6.84375 3.03125 L 7.132812 2.792969 L 8.136719 2.40625 L 9.140625 2.164062 Z M 10.097656 2.070312 "/>
<path style=" stroke:none;fill-rule:nonzero;fill:rgb(36.078432%,99.607843%,33.725491%);fill-opacity:1;" d="M 14.023438 14.582031 L 16.273438 14.582031 L 16.847656 14.632812 L 17.519531 15.0625 L 18.042969 15.304688 L 18.570312 15.449219 L 19.386719 15.449219 L 19.910156 15.257812 L 20.292969 14.96875 L 20.484375 14.679688 L 20.582031 14.679688 L 20.582031 15.113281 L 20.390625 15.738281 L 20.101562 16.265625 L 19.625 16.894531 L 19.144531 17.375 L 18.476562 17.855469 L 18.332031 17.953125 L 17.949219 17.902344 L 16.945312 17.46875 L 15.988281 16.988281 L 14.886719 16.363281 L 13.6875 15.691406 L 12.492188 14.96875 L 12.347656 14.824219 L 12.589844 14.726562 L 13.355469 14.632812 Z M 14.023438 14.582031 "/>
</g>
</svg>
