<?xml version="1.0" encoding="UTF-8"?>
<svg xmlns="http://www.w3.org/2000/svg" xmlns:xlink="http://www.w3.org/1999/xlink" width="30px" height="30px" viewBox="0 0 30 30" version="1.1">
<g id="surface1">
<path style=" stroke:none;fill-rule:nonzero;fill:rgb(36.862746%,98.823529%,33.333334%);fill-opacity:1;" d="M 15 5.566406 L 15.433594 5.578125 L 15.914062 5.625 L 16.378906 5.714844 L 16.875 5.863281 L 17.175781 5.984375 L 17.476562 6.121094 L 17.804688 6.300781 L 18.148438 6.523438 L 18.433594 6.734375 L 18.585938 6.871094 L 18.703125 6.976562 L 18.898438 7.15625 L 19.003906 7.273438 L 19.140625 7.425781 L 19.273438 7.589844 L 19.453125 7.816406 L 19.648438 8.085938 L 19.859375 8.371094 L 20.054688 8.640625 L 20.296875 8.953125 L 20.476562 9.210938 L 20.894531 9.78125 L 21.089844 10.050781 L 21.511719 10.621094 L 21.703125 10.890625 L 22.125 11.460938 L 22.320312 11.730469 L 22.949219 12.585938 L 23.339844 13.125 L 23.761719 13.695312 L 23.941406 13.933594 L 24.136719 14.203125 L 24.34375 14.488281 L 24.511719 14.714844 L 24.703125 14.984375 L 25.125 15.554688 L 25.320312 15.824219 L 25.53125 16.109375 L 25.726562 16.378906 L 25.949219 16.679688 L 26.144531 16.949219 L 26.566406 17.519531 L 26.835938 17.925781 L 27.015625 18.238281 L 27.195312 18.644531 L 27.328125 19.050781 L 27.421875 19.441406 L 27.464844 19.710938 L 27.496094 20.011719 L 27.496094 20.519531 L 27.449219 20.910156 L 27.359375 21.34375 L 27.253906 21.703125 L 27.089844 22.109375 L 26.96875 22.351562 L 26.835938 22.589844 L 26.714844 22.769531 L 26.59375 22.933594 L 26.445312 23.128906 L 26.296875 23.296875 L 26.191406 23.414062 L 25.933594 23.65625 L 25.738281 23.820312 L 25.53125 23.96875 L 25.304688 24.121094 L 24.976562 24.300781 L 24.660156 24.449219 L 24.148438 24.628906 L 23.851562 24.703125 L 23.445312 24.765625 L 23.265625 24.78125 L 23.023438 24.78125 L 23.054688 24.71875 L 23.296875 24.601562 L 23.609375 24.40625 L 23.804688 24.269531 L 23.96875 24.136719 L 24.121094 24 L 24.238281 23.894531 L 24.421875 23.714844 L 24.539062 23.566406 L 24.765625 23.234375 L 24.914062 22.964844 L 24.988281 22.816406 L 25.109375 22.453125 L 25.199219 22.09375 L 25.246094 21.75 L 25.246094 21.269531 L 25.199219 20.863281 L 25.109375 20.460938 L 24.976562 20.023438 L 24.78125 19.589844 L 24.613281 19.289062 L 24.421875 19.003906 L 24 18.433594 L 23.804688 18.164062 L 23.578125 17.863281 L 23.429688 17.65625 L 23.011719 17.085938 L 22.816406 16.816406 L 22.605469 16.53125 L 22.410156 16.261719 L 21.988281 15.691406 L 21.796875 15.421875 L 21.375 14.851562 L 21.179688 14.578125 L 21 14.339844 L 20.609375 13.800781 L 20.386719 13.5 L 20.191406 13.230469 L 19.558594 12.375 L 19.363281 12.105469 L 18.945312 11.535156 L 18.796875 11.324219 L 18.375 10.753906 L 18.179688 10.484375 L 18 10.246094 L 17.804688 9.976562 L 17.59375 9.691406 L 17.398438 9.421875 L 17.191406 9.136719 L 17.023438 8.925781 L 16.890625 8.761719 L 16.726562 8.578125 L 16.53125 8.386719 L 16.410156 8.28125 L 16.199219 8.113281 L 15.988281 7.964844 L 15.71875 7.800781 L 15.433594 7.648438 L 15.03125 7.484375 L 14.609375 7.363281 L 14.085938 7.261719 L 13.769531 7.230469 L 13.335938 7.214844 L 12.945312 7.230469 L 12.554688 7.273438 L 11.984375 7.378906 L 11.578125 7.46875 L 11.265625 7.574219 L 10.859375 7.726562 L 10.753906 7.738281 L 10.816406 7.636719 L 10.980469 7.441406 L 11.144531 7.261719 L 11.28125 7.109375 L 11.386719 7.003906 L 11.503906 6.898438 L 11.714844 6.71875 L 11.894531 6.585938 L 12.164062 6.40625 L 12.464844 6.226562 L 12.824219 6.046875 L 13.140625 5.910156 L 13.546875 5.773438 L 13.890625 5.683594 L 14.25 5.625 L 14.488281 5.59375 Z M 15 5.566406 "/>
<path style=" stroke:none;fill-rule:nonzero;fill:rgb(36.862746%,98.823529%,33.333334%);fill-opacity:1;" d="M 3.464844 17.671875 L 3.496094 17.683594 L 3.464844 17.925781 L 3.464844 18.074219 L 3.511719 18.433594 L 3.585938 18.78125 L 3.691406 19.140625 L 3.824219 19.5 L 3.976562 19.84375 L 4.183594 20.265625 L 4.394531 20.609375 L 4.515625 20.789062 L 4.695312 21.03125 L 4.859375 21.226562 L 4.996094 21.375 L 5.128906 21.511719 L 5.25 21.613281 L 5.488281 21.808594 L 5.730469 21.960938 L 5.953125 22.078125 L 6.269531 22.199219 L 6.570312 22.261719 L 6.703125 22.273438 L 7.125 22.273438 L 7.453125 22.214844 L 7.753906 22.125 L 8.011719 22.003906 L 8.339844 21.824219 L 8.65625 21.644531 L 8.941406 21.480469 L 10.109375 20.804688 L 10.53125 20.566406 L 10.875 20.371094 L 11.191406 20.191406 L 11.96875 19.738281 L 12.328125 19.53125 L 12.734375 19.304688 L 12.988281 19.15625 L 13.351562 18.945312 L 13.621094 18.796875 L 13.828125 18.703125 L 14.25 18.570312 L 14.519531 18.511719 L 14.773438 18.480469 L 15.328125 18.480469 L 15.613281 18.511719 L 15.898438 18.570312 L 16.351562 18.71875 L 16.695312 18.886719 L 17.054688 19.09375 L 17.460938 19.320312 L 17.699219 19.453125 L 18.121094 19.695312 L 18.421875 19.859375 L 19.109375 20.25 L 19.484375 20.460938 L 19.695312 20.578125 L 19.828125 20.671875 L 19.828125 20.683594 L 19.664062 20.671875 L 19.214844 20.59375 L 18.988281 20.566406 L 18.328125 20.519531 L 17.296875 20.519531 L 16.726562 20.566406 L 16.261719 20.640625 L 15.796875 20.746094 L 15.433594 20.851562 L 15.015625 21.015625 L 14.578125 21.238281 L 14.21875 21.449219 L 13.828125 21.675781 L 13.453125 21.886719 L 13.199219 22.035156 L 12.824219 22.246094 L 12.464844 22.453125 L 12.046875 22.695312 L 11.683594 22.90625 L 11.28125 23.128906 L 11.023438 23.28125 L 9.929688 23.910156 L 9.511719 24.148438 L 9.210938 24.316406 L 8.835938 24.480469 L 8.339844 24.644531 L 8.023438 24.71875 L 7.726562 24.765625 L 7.558594 24.78125 L 6.929688 24.78125 L 6.539062 24.75 L 6.148438 24.675781 L 5.851562 24.585938 L 5.398438 24.421875 L 4.980469 24.210938 L 4.738281 24.058594 L 4.441406 23.851562 L 4.246094 23.683594 L 4.050781 23.503906 L 3.78125 23.234375 L 3.644531 23.070312 L 3.421875 22.769531 L 3.164062 22.351562 L 2.984375 21.976562 L 2.878906 21.703125 L 2.746094 21.226562 L 2.683594 20.925781 L 2.640625 20.519531 L 2.640625 19.921875 L 2.683594 19.558594 L 2.773438 19.171875 L 2.910156 18.734375 L 3 18.511719 L 3.148438 18.195312 L 3.34375 17.851562 Z M 3.464844 17.671875 "/>
<path style=" stroke:none;fill-rule:nonzero;fill:rgb(36.862746%,98.823529%,33.333334%);fill-opacity:1;" d="M 14.863281 11.070312 L 15.285156 11.070312 L 15.570312 11.144531 L 15.78125 11.25 L 15.929688 11.371094 L 16.050781 11.476562 L 16.15625 11.59375 L 16.304688 11.761719 L 16.441406 11.925781 L 16.589844 12.089844 L 16.859375 12.421875 L 17.25 12.898438 L 17.550781 13.289062 L 17.746094 13.546875 L 17.984375 13.859375 L 18.136719 14.070312 L 18.359375 14.371094 L 18.523438 14.59375 L 18.914062 15.136719 L 19.109375 15.421875 L 19.289062 15.675781 L 19.484375 15.945312 L 19.710938 16.273438 L 20.191406 16.996094 L 20.625 17.640625 L 20.820312 17.941406 L 20.984375 18.195312 L 21.136719 18.433594 L 21.328125 18.71875 L 21.40625 18.855469 L 21.40625 18.886719 L 21.328125 18.855469 L 21.058594 18.691406 L 20.835938 18.554688 L 19.605469 17.835938 L 19.171875 17.59375 L 18.855469 17.414062 L 18.449219 17.203125 L 18.105469 17.039062 L 17.609375 16.816406 L 17.234375 16.664062 L 16.859375 16.53125 L 16.425781 16.410156 L 16.035156 16.320312 L 15.570312 16.261719 L 15.375 16.246094 L 14.699219 16.246094 L 14.25 16.289062 L 13.785156 16.378906 L 13.289062 16.515625 L 12.929688 16.636719 L 12.539062 16.785156 L 11.878906 17.070312 L 11.460938 17.28125 L 11.160156 17.445312 L 10.921875 17.566406 L 10.648438 17.714844 L 9.960938 18.121094 L 9.734375 18.253906 L 9.433594 18.449219 L 9.164062 18.613281 L 8.804688 18.855469 L 8.746094 18.886719 L 8.699219 18.871094 L 8.835938 18.644531 L 8.941406 18.496094 L 9.089844 18.269531 L 9.269531 17.984375 L 9.601562 17.488281 L 9.796875 17.203125 L 9.898438 17.054688 L 10.050781 16.828125 L 10.484375 16.183594 L 10.816406 15.703125 L 10.921875 15.554688 L 11.070312 15.34375 L 11.25 15.089844 L 11.460938 14.804688 L 11.609375 14.59375 L 11.804688 14.324219 L 11.953125 14.128906 L 12.164062 13.84375 L 12.375 13.574219 L 12.570312 13.320312 L 12.71875 13.125 L 12.929688 12.855469 L 13.125 12.613281 L 13.246094 12.464844 L 13.410156 12.269531 L 13.546875 12.105469 L 13.664062 11.96875 L 13.785156 11.820312 L 14.113281 11.460938 L 14.296875 11.296875 L 14.503906 11.175781 L 14.671875 11.113281 Z M 14.863281 11.070312 "/>
<path style=" stroke:none;fill-rule:nonzero;fill:rgb(36.862746%,98.823529%,33.333334%);fill-opacity:1;" d="M 13.050781 7.800781 L 13.726562 7.800781 L 14.113281 7.84375 L 14.488281 7.921875 L 14.804688 8.011719 L 15.03125 8.101562 L 15.105469 8.144531 L 15.105469 8.160156 L 14.984375 8.175781 L 14.699219 8.191406 L 14.398438 8.25 L 14.160156 8.324219 L 13.90625 8.429688 L 13.695312 8.535156 L 13.410156 8.714844 L 13.214844 8.878906 L 13.019531 9.074219 L 12.839844 9.285156 L 12.644531 9.554688 L 12.226562 10.125 L 12.03125 10.394531 L 11.851562 10.636719 L 11.730469 10.800781 L 11.519531 11.085938 L 11.371094 11.296875 L 11.191406 11.535156 L 11.070312 11.699219 L 10.875 11.96875 L 10.664062 12.253906 L 10.46875 12.523438 L 10.050781 13.09375 L 9.855469 13.363281 L 9.644531 13.648438 L 9.480469 13.875 L 9.058594 14.445312 L 8.863281 14.714844 L 8.699219 14.941406 L 8.28125 15.511719 L 8.113281 15.734375 L 7.90625 16.019531 L 7.785156 16.183594 L 7.636719 16.394531 L 7.410156 16.695312 L 7.261719 16.90625 L 7.050781 17.191406 L 6.855469 17.460938 L 6.226562 18.316406 L 5.835938 18.855469 L 5.683594 19.050781 L 5.550781 19.273438 L 5.460938 19.453125 L 5.371094 19.800781 L 5.324219 20.128906 L 5.324219 20.535156 L 5.339844 20.714844 L 5.339844 20.863281 L 5.234375 20.773438 L 4.996094 20.398438 L 4.84375 20.160156 L 4.648438 19.816406 L 4.46875 19.46875 L 4.273438 19.003906 L 4.140625 18.628906 L 4.019531 18.238281 L 3.929688 17.835938 L 3.886719 17.566406 L 3.855469 17.234375 L 3.855469 17.144531 L 3.960938 16.980469 L 4.15625 16.726562 L 4.363281 16.441406 L 4.515625 16.230469 L 4.664062 16.035156 L 4.875 15.75 L 5.265625 15.210938 L 5.683594 14.640625 L 5.835938 14.429688 L 6.03125 14.160156 L 6.179688 13.964844 L 6.390625 13.679688 L 6.539062 13.46875 L 6.75 13.183594 L 6.976562 12.886719 L 7.183594 12.601562 L 7.335938 12.390625 L 7.515625 12.148438 L 7.710938 11.878906 L 7.933594 11.578125 L 8.085938 11.371094 L 8.21875 11.191406 L 8.429688 10.90625 L 8.609375 10.648438 L 8.820312 10.363281 L 9.015625 10.09375 L 9.164062 9.898438 L 9.316406 9.691406 L 9.464844 9.496094 L 9.585938 9.328125 L 10.003906 8.761719 L 10.09375 8.65625 L 10.425781 8.488281 L 11.011719 8.265625 L 11.339844 8.144531 L 11.941406 7.980469 L 12.210938 7.921875 L 12.691406 7.84375 Z M 13.050781 7.800781 "/>
<path style=" stroke:none;fill-rule:nonzero;fill:rgb(36.862746%,98.823529%,33.333334%);fill-opacity:1;" d="M 17.953125 21.136719 L 19.753906 21.136719 L 20.25 21.148438 L 20.640625 21.179688 L 20.746094 21.226562 L 20.863281 21.316406 L 21.074219 21.464844 L 21.375 21.644531 L 21.808594 21.855469 L 22.09375 21.960938 L 22.484375 22.050781 L 22.753906 22.09375 L 23.21875 22.09375 L 23.519531 22.035156 L 23.773438 21.960938 L 24.015625 21.839844 L 24.210938 21.703125 L 24.464844 21.449219 L 24.601562 21.238281 L 24.644531 21.195312 L 24.675781 21.195312 L 24.691406 21.253906 L 24.691406 21.570312 L 24.613281 21.945312 L 24.539062 22.183594 L 24.464844 22.378906 L 24.316406 22.679688 L 24.148438 22.933594 L 23.96875 23.191406 L 23.804688 23.398438 L 23.625 23.609375 L 23.429688 23.820312 L 23.324219 23.910156 L 23.25 23.984375 L 23.085938 24.136719 L 22.875 24.300781 L 22.648438 24.464844 L 22.304688 24.675781 L 22.214844 24.71875 L 22.109375 24.71875 L 21.871094 24.644531 L 21.285156 24.421875 L 20.894531 24.238281 L 20.65625 24.121094 L 20.191406 23.894531 L 19.921875 23.746094 L 19.351562 23.445312 L 18.945312 23.21875 L 18.554688 22.996094 L 18.226562 22.816406 L 17.863281 22.605469 L 17.445312 22.363281 L 17.25 22.246094 L 16.84375 22.003906 L 16.320312 21.691406 L 15.929688 21.464844 L 15.839844 21.40625 L 15.855469 21.359375 L 16.171875 21.285156 L 16.648438 21.226562 L 17.308594 21.164062 Z M 17.953125 21.136719 "/>
</g>
</svg>
